<svg xmlns="http://www.w3.org/2000/svg" xmlns:xlink="http://www.w3.org/1999/xlink" version="1.0" id="katman_1" x="0px" y="0px" viewBox="0 0 600 400" style="enable-background:new 0 0 600 400;" xml:space="preserve">
<style type="text/css">
	.st0{fill:#edede8;}
	.st1{fill-rule:evenodd;clip-rule:evenodd;fill:#edede8;}
</style>
<desc fill="#000000">Created with Sketch.</desc>
<g>
	<g>
		<path class="st0" d="M467.5,132.3c18.7,0,37.4,0,56.1,0c3.4,0,4.1,0.7,4.1,4.1c0,32.2,0,64.5,0.1,96.7c0,3.9-1.2,6-4.6,7.9    c-17.8,9.9-35.4,20.1-53.2,30.2c-2,1.2-3.7,1.2-5.7,0c-18.3-10.5-36.7-21-55.2-31.4c-1.7-1.1-2.4-2.2-2.4-4.4c0.1-33,0-65.9,0-99    c0-3.6,0.7-4.3,4.4-4.3C430,132.3,448.8,132.3,467.5,132.3z M470.1,264.7c16.5-9.5,32.8-18.7,49.5-28.3    c-16.6-9.6-32.9-18.9-49.5-28.4C470.1,227.2,470.1,245.8,470.1,264.7z M464.5,264.7c0-18.8,0-37.3,0-56.1    c-16.5,9.4-32.6,18.7-49,28.2C432,246.1,448.1,255.4,464.5,264.7z M412.5,165.6c16.2-9.2,32.1-18.3,47.9-27.5    c-0.1-0.1-0.1-0.2-0.2-0.4c-15.9,0-31.7,0-47.7,0C412.5,147.1,412.5,156.2,412.5,165.6z M474.5,137.8c0,0.1-0.1,0.2-0.1,0.4    c15.9,9.1,31.7,18.2,47.8,27.5c0-9.5,0-18.6,0-27.8C506.2,137.8,490.4,137.8,474.5,137.8z M439.6,190.6    c-7.5,12.8-14.8,25.6-22.1,38.2c0.1,0.1,0.2,0.2,0.4,0.4c14.7-8.5,29.4-16.9,44.5-25.6C454.5,199.1,447,194.9,439.6,190.6z     M492.6,186.2c-7.5-12.8-14.8-25.5-22.4-38.6c0,17.5,0,34.3,0,51.4C477.8,194.6,485.1,190.5,492.6,186.2z M519.8,170.5    c-15-8.5-29.6-16.9-44.3-25.3c-0.1,0.1-0.2,0.2-0.2,0.4c7.3,12.7,14.7,25.2,22,38C504.9,179.1,512.3,175,519.8,170.5z     M434.8,187.9c-7.6-4.3-14.8-8.5-22.4-12.8c0,17.2,0,33.9,0,50.5c0.1,0.1,0.2,0.1,0.4,0.1C420.2,213.2,427.4,200.7,434.8,187.9z     M459.5,145.5c-0.1-0.1-0.2-0.2-0.4-0.4c-14.6,8.4-29.1,16.7-43.9,25.2c7.7,4.4,14.9,8.5,22.4,12.8    C444.9,170.6,452.2,158.1,459.5,145.5z M442.3,185.9c7.5,4.3,14.7,8.4,22.1,12.7c0-16.9,0-33.5,0-50.7    C456.9,160.8,449.6,173.3,442.3,185.9z M521.7,225.5c0.1,0,0.2-0.1,0.4-0.1c0-16.6,0-33,0-50c-7.5,4.3-14.7,8.4-22.1,12.7    C507.4,200.8,514.6,213.2,521.7,225.5z M516.6,228.5c0.1-0.1,0.2-0.2,0.4-0.4c-7.2-12.4-14.3-24.7-21.7-37.3    c-7.5,4.3-14.7,8.4-22.1,12.7C488,212,502.3,220.3,516.6,228.5z" fill="#000000"/>
	</g>
</g>
<path class="st1" d="M71.7,216.3v-30.6l7.2-7.2h20.2l6.9,6.9v5.1h-6.2v-2.9l-3.7-3.7H81.9l-4,4v26.2l4,4h14.3l3.7-3.7v-2.9h6.2v5.1  l-6.9,6.9H78.9L71.7,216.3z M113.4,178.5h30.2v5.4h-24v14.3h22.2v5.3h-22.2v14.5h24v5.4h-30.2V178.5z M184.4,209.3v14.1h-6.2v-12.6  l-5.3-5.7h-15.4v18.3h-6.2v-45h26.5l6.2,6.2v14l-4.9,4.9L184.4,209.3z M157.5,199.9h17.6l2.9-2.8v-10.5l-2.9-2.8h-17.6V199.9z   M203.1,183.8h-13.6v-5.3h33.3v5.3h-13.6v39.7h-6.2V183.8z M227.6,216.3v-30.6l7.2-7.2H256l7.2,7.2v30.6l-7.2,7.2h-21.2L227.6,216.3  z M253.1,218.1l4-4v-26.2l-4-4h-15.3l-4,4v26.2l4,4H253.1z M305.3,209.3v14.1h-6.2v-12.6l-5.3-5.7h-15.4v18.3h-6.2v-45h26.5l6.2,6.2  v14l-4.9,4.9L305.3,209.3z M278.4,199.9H296l2.9-2.8v-10.5l-2.9-2.8h-17.6V199.9z M326.9,178.5h6.2l16.2,45h-6.4l-4-11.4h-17.8  l-4,11.4h-6.4L326.9,178.5z M337.3,206.8l-7.3-21h-0.1l-7.1,21H337.3z" fill="#000000"/>
</svg>