<svg id="svg" xmlns="http://www.w3.org/2000/svg" xmlns:xlink="http://www.w3.org/1999/xlink" width="400" height="300" viewBox="0, 0, 400,300">
  <g id="svgg">
    <path id="path0" d="M128.542 94.048 C 105.383 97.250,92.414 118.651,98.549 143.542 C 103.775 164.748,129.888 175.677,150.721 165.378 C 157.062 162.243,163.053 156.462,161.678 154.806 C 160.794 153.741,159.976 154.063,157.452 156.470 C 147.795 165.682,128.857 165.180,119.127 155.454 C 105.032 141.366,108.699 107.697,125.208 99.624 C 138.111 93.315,152.296 100.263,160.059 116.695 C 161.850 120.486,162.207 120.819,163.478 119.890 C 164.150 119.399,164.154 119.235,163.535 117.494 C 161.935 112.993,161.026 103.340,161.749 98.542 C 161.843 97.921,161.610 97.678,160.833 97.589 C 160.260 97.523,157.073 96.912,153.750 96.231 C 142.651 93.956,134.382 93.240,128.542 94.048 M271.280 94.370 C 260.809 96.747,255.000 103.662,255.000 113.750 C 255.000 124.809,261.486 131.296,276.925 135.679 C 288.215 138.885,290.954 141.147,292.124 148.235 C 293.319 155.467,289.975 161.868,283.783 164.204 C 271.759 168.739,259.510 160.223,255.775 144.730 C 254.854 140.907,254.813 140.833,253.609 140.833 L 252.381 140.833 252.660 143.438 C 253.417 150.506,253.729 156.810,253.486 160.084 L 253.217 163.709 255.605 164.765 C 280.534 175.790,304.439 165.869,303.210 145.007 C 302.525 133.372,296.834 127.866,281.250 123.760 C 267.777 120.211,264.184 116.969,264.672 108.803 C 265.112 101.445,269.742 97.691,278.333 97.725 C 287.088 97.760,292.827 102.703,296.216 113.125 C 297.468 116.975,299.499 118.221,299.272 115.000 C 299.216 114.198,299.053 110.037,298.910 105.753 L 298.651 97.965 295.680 96.895 C 287.677 94.015,277.489 92.960,271.280 94.370 M170.000 96.664 C 170.000 97.773,170.111 97.832,173.021 98.276 C 177.274 98.924,178.993 99.474,180.312 100.608 L 181.458 101.594 181.825 114.859 C 182.046 122.860,182.033 134.724,181.793 144.751 L 181.394 161.378 180.266 162.348 C 178.989 163.446,175.932 164.406,172.396 164.817 C 170.048 165.090,170.000 165.122,170.000 166.402 L 170.000 167.708 187.292 167.708 L 204.583 167.708 204.583 166.426 L 204.583 165.144 201.146 164.623 C 193.586 163.477,193.348 163.165,193.104 154.103 C 192.997 150.128,192.824 143.828,192.720 140.104 C 192.542 133.762,192.578 133.333,193.289 133.333 C 193.945 133.333,205.248 144.695,217.200 157.369 C 221.991 162.450,221.614 164.225,215.605 164.888 C 212.769 165.202,212.708 165.233,212.708 166.402 L 212.708 167.596 230.104 167.652 L 247.500 167.708 247.500 166.354 C 247.500 165.272,247.330 165.000,246.656 165.000 C 241.348 165.000,231.805 156.702,206.100 129.739 L 202.872 126.353 215.937 113.906 C 231.035 99.520,231.330 99.323,239.462 98.111 C 241.169 97.856,242.084 96.846,241.486 95.878 C 241.353 95.663,235.133 95.497,227.084 95.493 L 212.917 95.486 212.917 96.661 C 212.917 97.793,213.009 97.845,215.521 98.117 C 220.853 98.695,222.699 99.738,221.699 101.607 C 221.109 102.708,193.816 128.930,193.088 129.094 C 192.577 129.210,192.517 128.355,192.696 123.469 C 192.812 120.301,193.006 114.155,193.128 109.811 C 193.413 99.619,193.426 99.601,201.528 98.289 C 204.475 97.812,205.391 97.117,204.636 95.931 C 204.472 95.672,198.027 95.519,187.188 95.516 L 170.000 95.512 170.000 96.664 M175.102 175.065 C 173.762 176.405,174.721 178.443,177.188 179.494 C 178.461 180.037,178.615 180.497,177.761 181.206 C 176.983 181.852,175.850 181.347,175.395 180.152 C 174.848 178.712,174.167 178.949,174.167 180.580 C 174.167 182.173,174.658 182.500,177.053 182.500 C 180.449 182.500,181.125 179.161,178.021 177.719 C 176.331 176.934,175.808 176.156,176.629 175.648 C 177.238 175.272,178.281 175.844,178.554 176.705 C 178.967 178.006,179.646 177.607,179.506 176.146 C 179.361 174.647,176.277 173.890,175.102 175.065 M182.917 174.979 C 182.917 175.197,183.161 175.525,183.460 175.708 C 185.233 176.795,186.504 181.019,185.208 181.516 C 183.924 182.009,184.652 182.500,186.667 182.500 C 188.681 182.500,189.409 182.009,188.125 181.516 C 186.864 181.032,188.975 175.417,190.417 175.417 C 190.646 175.417,190.833 175.229,190.833 175.000 C 190.833 174.771,190.083 174.583,189.167 174.583 C 188.250 174.583,187.500 174.771,187.500 175.000 C 187.500 175.229,187.683 175.417,187.908 175.417 C 188.156 175.417,188.130 175.825,187.841 176.458 C 187.580 177.031,187.239 177.500,187.083 177.500 C 186.928 177.500,186.587 177.031,186.326 176.458 C 185.936 175.603,185.961 175.417,186.467 175.417 C 186.806 175.417,187.083 175.229,187.083 175.000 C 187.083 174.771,186.146 174.583,185.000 174.583 C 183.854 174.583,182.917 174.762,182.917 174.979 M194.426 175.217 C 192.993 176.650,193.781 178.397,196.354 179.494 C 197.600 180.025,197.872 181.018,196.875 181.401 C 195.906 181.773,195.018 181.257,194.743 180.162 C 194.335 178.537,193.205 178.879,193.558 180.521 C 193.973 182.458,194.026 182.500,196.036 182.500 C 199.678 182.500,200.455 179.237,197.176 177.714 C 196.069 177.200,195.439 176.649,195.514 176.260 C 195.725 175.167,197.037 175.275,197.562 176.429 C 198.241 177.917,198.829 177.768,198.672 176.146 C 198.516 174.525,195.728 173.915,194.426 175.217 M202.562 175.656 C 201.890 177.131,202.398 177.767,203.394 176.698 C 204.925 175.055,205.417 175.554,205.417 178.750 C 205.417 181.065,205.288 181.667,204.792 181.667 C 204.448 181.667,204.167 181.854,204.167 182.083 C 204.167 182.313,205.104 182.500,206.250 182.500 C 208.492 182.500,208.673 182.363,207.708 181.399 C 206.717 180.408,206.835 175.833,207.852 175.833 C 208.275 175.833,208.956 176.204,209.366 176.657 C 210.382 177.779,210.862 177.350,210.288 175.832 C 209.601 174.010,203.376 173.869,202.562 175.656 M213.333 174.955 C 213.333 175.160,213.615 175.435,213.958 175.567 C 214.426 175.747,214.583 176.495,214.583 178.542 C 214.583 180.588,214.426 181.337,213.958 181.516 C 212.429 182.103,213.610 182.500,216.885 182.500 C 220.340 182.500,220.449 182.470,220.855 181.401 C 221.389 179.998,221.150 179.778,219.932 180.551 C 217.773 181.920,216.250 181.878,216.250 180.450 C 216.250 179.055,217.598 178.567,218.067 179.792 C 218.537 181.014,219.035 180.388,219.063 178.542 C 219.091 176.715,218.549 176.035,218.067 177.292 C 217.652 178.375,216.250 178.054,216.250 176.875 C 216.250 175.545,218.118 175.424,219.680 176.653 C 220.973 177.671,221.298 177.401,220.697 175.809 C 220.233 174.581,213.333 173.781,213.333 174.955 M224.167 174.975 C 224.167 175.218,224.354 175.417,224.583 175.417 C 224.821 175.417,225.000 176.658,225.000 178.309 C 225.000 179.899,224.813 181.317,224.583 181.458 C 223.675 182.020,224.251 182.500,225.833 182.500 C 227.497 182.500,228.058 181.970,226.875 181.516 C 226.447 181.352,226.259 180.713,226.278 179.492 L 226.305 177.708 227.192 180.104 C 228.278 183.041,228.420 183.054,229.501 180.313 L 230.363 178.125 230.390 179.701 C 230.407 180.736,230.202 181.358,229.792 181.516 C 228.507 182.009,229.235 182.500,231.250 182.500 C 233.265 182.500,233.993 182.009,232.708 181.516 C 232.241 181.337,232.083 180.588,232.083 178.542 C 232.083 176.495,232.241 175.747,232.708 175.567 C 233.906 175.108,233.323 174.534,231.789 174.662 C 230.345 174.783,230.205 174.920,229.633 176.771 C 229.296 177.859,228.899 178.750,228.750 178.750 C 228.601 178.750,228.204 177.859,227.867 176.771 C 227.279 174.868,224.167 173.358,224.167 174.975 M237.321 175.238 C 236.002 176.557,236.790 178.451,238.955 179.166 C 240.512 179.679,240.992 181.056,239.776 181.522 C 239.051 181.800,237.500 180.577,237.500 179.727 C 237.500 179.419,237.301 179.167,237.058 179.167 C 235.433 179.167,236.945 182.297,238.630 182.419 C 242.051 182.667,243.893 179.030,240.938 177.863 C 238.941 177.075,238.542 176.799,238.542 176.205 C 238.542 175.260,240.172 175.541,240.620 176.563 C 241.226 177.945,242.167 177.783,241.825 176.354 C 241.675 175.724,241.473 175.068,241.376 174.896 C 241.050 174.315,237.986 174.573,237.321 175.238 " stroke="none" fill="white" fill-rule="evenodd"></path>
  </g>
</svg>