<?xml version="1.0" encoding="utf-8"?>
<svg fill="#000000" xmlns="http://www.w3.org/2000/svg" 
	 width="800px" height="800px" viewBox="0 0 100 100" enable-background="new 0 0 100 100" xml:space="preserve">
	<defs>
    <radialGradient id="grad1" cx="50%" cy="50%" r="50%" fx="50%" fy="50%">
      <stop offset="0%" style="stop-color:#95C9BD;stop-opacity:1" />
      <stop offset="100%" style="stop-color:#2b7765;stop-opacity:1" />
    </radialGradient>
  </defs>
  <g transform="rotate(-90 50 50)">
    <path fill="url(#grad1)" d="M79.2,32.8c-0.2-0.7-1.101-0.9-1.7-0.4L67.4,42.5c-0.801,0.8-2,0.8-2.801,0l-7.1-7.1c-0.8-0.8-0.8-2,0-2.8
	l10.2-10.2c0.5-0.5,0.3-1.4-0.4-1.7C65.6,20.3,63.8,20,62,20c-10.6,0-19.1,9.2-17.9,20c0.2,1.7,0.6,3.2,1.2,4.7L22,68.1
	c-2.7,2.7-2.7,7.2,0,9.9c1.4,1.4,3.2,2.1,5,2.1s3.6-0.699,5-2.1l23.3-23.3c1.5,0.6,3.101,1,4.7,1.2C70.9,57.1,80,48.6,80,38
	C80,36.2,79.7,34.4,79.2,32.8z"/>
  </g>
</svg>
