<?xml version="1.0" encoding="utf-8"?>
<svg width="800px" height="800px" viewBox="0 0 512 512" version="1.1" xmlns="http://www.w3.org/2000/svg">
  <defs>
    <radialGradient id="grad1" cx="50%" cy="50%" r="50%" fx="50%" fy="50%">
      <stop offset="4.9%" style="stop-color:#bca378;stop-opacity:1" />
      <stop offset="100%" style="stop-color:#dfab52;stop-opacity:1" />
    </radialGradient>
  </defs>
  <path fill="url(#grad1)" d="M480,384c17.703,0.03 32,14.346 32,32c0,17.654 -14.297,31.97 -32,32l-448,0c-17.673,0 -32,-14.327 -32,-32c0,-17.654 14.297,-31.97 32,-32l448,0Zm0,-48l-50.902,0c1.906,-10.377 2.902,-21.072 2.902,-32c0,-10.928 -0.996,-21.623 -2.902,-32l50.902,0c17.673,0 32,14.327 32,32c0,17.654 -14.297,31.97 -32,32Zm-397.098,0l-50.902,0c-17.673,0 -32,-14.327 -32,-32c0,-17.673 14.327,-32 32,-32l50.902,0c-1.906,10.377 -2.902,21.072 -2.902,32c0,10.907 0.992,21.583 2.902,32Zm99.755,0l-50.624,0c-2.633,-10.228 -4.033,-20.95 -4.033,-32c0,-70.692 57.308,-128 128,-128c70.692,0 128,57.308 128,128c0,11.029 -1.395,21.732 -4.033,32l-50.624,0c4.282,-9.799 6.657,-20.622 6.657,-32c0,-44.183 -35.817,-80 -80,-80c-44.183,0 -80,35.817 -80,80c0,11.357 2.366,22.16 6.657,32Zm-68.078,-207.363l35.096,35.097c-17.112,12.992 -31.774,29.043 -43.171,47.339l-37.18,-37.181c-12.497,-12.497 -12.497,-32.758 0,-45.255c12.497,-12.496 32.758,-12.496 45.255,0Zm316.783,33.942l-35.096,35.096c-12.992,-17.112 -29.043,-31.774 -47.339,-43.171l37.181,-37.18c12.496,-12.497 32.758,-12.497 45.254,0c12.497,12.497 12.497,32.758 0,45.255Zm-143.362,-82.579c0,-17.673 -14.327,-32 -32,-32c-17.673,0 -32,14.327 -32,32l0,50.902c10.377,-1.906 21.072,-2.902 32,-2.902c10.928,0 21.623,0.996 32,2.902l0,-50.902Z"></path>
</svg>
