<svg width="417" height="92" viewBox="0 0 417 92" fill="none" xmlns="http://www.w3.org/2000/svg">
<path d="M67.3222 35.8926C67.0909 35.9733 66.8565 36.0481 66.6223 36.1164C66.8565 36.0481 67.0909 35.9765 67.3222 35.8926Z" fill="url(#paint0_linear_1830_2100)"/>
<path d="M71.2605 33.7168C70.1482 34.5931 68.9323 35.2707 67.6628 35.7617C68.9351 35.2739 70.1482 34.5931 71.2605 33.7168Z" fill="url(#paint1_linear_1830_2100)"/>
<path d="M71.3219 33.6731C71.3219 33.6702 71.3219 33.6702 71.3219 33.6731C71.3015 33.6854 71.2809 33.7009 71.2605 33.7163C71.2809 33.7009 71.3015 33.6886 71.3219 33.6731Z" fill="url(#paint2_linear_1830_2100)"/>
<path d="M0.139343 45.8818C0.139343 45.9347 0.139343 45.9876 0.139343 46.0405C0.139343 59.3152 5.53127 71.6636 14.8263 80.3135C12.4684 77.7867 11.0537 74.3988 10.8965 70.812C10.8876 70.5852 10.8817 70.3552 10.8817 70.1282C10.8817 69.7583 10.9084 69.3885 10.9351 69.0219C8.90642 64.2478 7.81794 59.0107 7.81794 53.5838C7.81794 53.5403 7.81794 53.4969 7.81794 53.4532C7.88319 32.7191 24.0324 15.7301 43.8175 15.5872C52.3445 15.525 60.6487 18.6269 67.2005 24.3241C69.668 26.4686 71.1688 29.639 71.3171 33.0206C71.3259 33.2102 71.329 33.3997 71.329 33.5862C71.329 33.6143 71.3259 33.6391 71.3259 33.6669C71.8241 33.2693 72.3107 32.8495 72.7615 32.3741C75.1698 29.8533 76.6082 26.4997 76.8601 22.9751C76.8573 23.0186 76.8483 23.0591 76.8454 23.0994C76.8542 22.9938 76.8601 22.8912 76.8691 22.7856C76.8869 22.4809 76.9137 22.1764 76.9137 21.8718V21.8687C76.9137 21.6418 76.9078 21.4118 76.8988 21.1849C76.8988 21.1787 76.8988 21.1756 76.8988 21.1693C76.8779 20.6845 76.8305 20.2027 76.7623 19.7241C76.7326 19.5065 76.6824 19.2982 76.6437 19.0838C76.5963 18.8258 76.5546 18.5678 76.4925 18.3161C76.4243 18.0332 76.3382 17.7566 76.2522 17.4769C76.2017 17.3059 76.1543 17.1319 76.0979 16.964C75.9882 16.6408 75.8607 16.3238 75.7272 16.0068C75.6827 15.898 75.6383 15.7861 75.5909 15.6773C75.4336 15.3261 75.2617 14.9842 75.0778 14.6485C75.0451 14.5864 75.0124 14.5211 74.9768 14.4589C74.7723 14.0984 74.5528 13.744 74.3184 13.4022C74.2978 13.3742 74.28 13.3431 74.2592 13.3151C74.0101 12.9546 73.7432 12.6065 73.4614 12.2677C73.4555 12.2584 73.4465 12.2522 73.4405 12.2428C73.1499 11.8978 72.8416 11.5653 72.5183 11.2451C72.3195 11.0524 72.1296 10.8504 71.922 10.667C64.0032 3.77946 53.9668 0.0279727 43.6575 0.105675C19.7378 0.285946 0.219422 20.8181 0.139343 45.8818Z" fill="url(#paint3_linear_1830_2100)"/>
<path d="M66.127 36.2529C65.9193 36.3056 65.7086 36.3555 65.4982 36.399C65.7086 36.3585 65.9163 36.3056 66.127 36.2529Z" fill="url(#paint4_linear_1830_2100)"/>
<path d="M65.4975 36.4023C65.284 36.4458 65.0704 36.4801 64.854 36.5144C65.0676 36.4801 65.284 36.4458 65.4975 36.4023Z" fill="url(#paint5_linear_1830_2100)"/>
<path d="M12.2315 63.8403C11.662 61.5371 11.3565 59.1408 11.3565 56.7009C11.3565 56.6264 11.3565 56.5516 11.3565 56.4741C11.4722 41.1511 23.4602 28.5259 38.0789 28.3302C44.0521 28.2492 49.7378 30.1702 54.5188 33.8842C59.5103 37.7602 66.4237 37.5704 71.3204 33.6699C71.3204 33.6418 71.3232 33.614 71.3232 33.5859C71.3232 33.3994 71.3204 33.2099 71.3114 33.0203C71.1602 29.6387 69.6594 26.4683 67.1947 24.3238C60.6432 18.6266 52.3388 15.5247 43.812 15.5869C24.0267 15.7329 7.87757 32.7188 7.81232 53.4529C7.81232 53.4966 7.81232 53.54 7.81232 53.5835C7.81232 59.0103 8.90376 64.2474 10.9294 69.0216C11.0599 67.2188 11.5078 65.4658 12.2315 63.8403Z" fill="url(#paint6_linear_1830_2100)"/>
<path d="M76.8963 21.1884C76.9051 21.4153 76.911 21.6453 76.911 21.8722C76.911 22.2856 76.8785 22.6958 76.8428 23.106C76.8458 23.0625 76.8546 23.0223 76.8577 22.9818C78.8863 27.7559 79.9749 32.993 79.9749 38.4199C79.9749 38.4633 79.9749 38.5068 79.9749 38.5503C79.9095 59.2845 63.7604 76.2735 43.9753 76.4163C35.4483 76.4787 27.1438 73.3766 20.5923 67.6795C18.1247 65.5348 16.624 62.3647 16.4757 58.983C16.4668 58.7935 16.4638 58.6037 16.4638 58.4174C16.4638 58.3894 16.4668 58.3613 16.4668 58.3335C18.8632 56.4249 21.7431 55.4118 24.6407 55.3216C21.1321 55.4242 17.6561 56.8757 15.0284 59.6295C12.371 62.4144 10.8762 66.2094 10.8762 70.1348C10.8762 70.3618 10.8821 70.5918 10.891 70.8186C11.0719 74.9059 12.887 78.7382 15.8677 81.3303C23.7865 88.2179 33.8231 91.9694 44.1324 91.8916C68.046 91.7175 87.5674 71.1854 87.6475 46.1216C87.6475 46.0687 87.6475 46.0161 87.6475 45.9632C87.6475 32.4677 82.0895 19.9203 72.5097 11.2549C75.1315 13.8191 76.7271 17.3872 76.8963 21.1884Z" fill="url(#paint7_linear_1830_2100)"/>
<path d="M75.5589 28.1596C76.1282 30.4629 76.4337 32.8592 76.4337 35.2991C76.4337 35.3736 76.4337 35.4483 76.4337 35.5258C76.318 50.8489 64.33 63.4741 49.7113 63.6698C43.7381 63.7508 38.0526 61.8298 33.2716 58.1158C28.2801 54.2398 21.3666 54.4295 16.4699 58.3301C16.4699 58.3582 16.467 58.386 16.467 58.4141C16.467 58.6006 16.4699 58.7901 16.4789 58.9796C16.6301 62.3613 18.1308 65.5316 20.5955 67.6762C27.1472 73.3733 35.4514 76.4753 43.9784 76.4132C63.7635 76.2671 79.9128 59.2812 79.978 38.5471C79.978 38.5034 79.978 38.46 79.978 38.4165C79.978 32.9896 78.8865 27.7525 76.8608 22.9785C76.7304 24.7812 76.2825 26.5342 75.5589 28.1596Z" fill="url(#paint8_linear_1830_2100)"/>
<path d="M113.31 62.0999V26.2751H126.298C128.97 26.2751 131.368 26.6632 133.493 27.4389C135.649 28.1812 137.468 29.3111 138.949 30.8291C140.462 32.3471 141.62 34.2193 142.425 36.4457C143.23 38.6721 143.632 41.2527 143.632 44.1875C143.632 50.091 142.152 54.5605 139.19 57.5965C136.261 60.5987 132.028 62.0999 126.491 62.0999H113.31ZM126.588 54.6618C128.23 54.6618 129.614 54.4255 130.74 53.9533C131.899 53.4473 132.833 52.7389 133.541 51.8281C134.281 50.9173 134.812 49.8209 135.134 48.5391C135.456 47.2574 135.617 45.8235 135.617 44.2381C135.617 40.7973 134.845 38.2 133.3 36.4457C131.787 34.6915 129.421 33.8145 126.202 33.8145H121.18V54.6618H126.588ZM159.821 55.3195C160.69 55.3195 161.399 55.1677 161.946 54.8641C162.525 54.5267 162.96 54.1052 163.249 53.5992C163.571 53.0932 163.78 52.5027 163.877 51.8281C164.006 51.1536 164.07 50.4452 164.07 49.703V35.4337H171.651V50.1584C171.651 52.4186 171.345 54.3414 170.733 55.9267C170.154 57.5121 169.333 58.7942 168.271 59.7724C167.209 60.7505 165.937 61.4589 164.456 61.8976C163.008 62.3024 161.447 62.5048 159.773 62.5048C157.938 62.5048 156.28 62.2685 154.8 61.7963C153.319 61.3242 152.063 60.5819 151.033 59.5699C150.036 58.5579 149.263 57.2762 148.716 55.7244C148.201 54.139 147.943 52.2836 147.943 50.1584V35.4337H155.524V49.703C155.524 51.3222 155.846 52.6545 156.49 53.7003C157.133 54.7462 158.244 55.2857 159.821 55.3195ZM192.591 62.0999L192.542 58.6591C191.963 59.5026 191.271 60.211 190.466 60.7843C189.694 61.3242 188.824 61.7458 187.859 62.0494C186.925 62.353 185.766 62.5048 184.382 62.5048C183.256 62.5048 182.193 62.353 181.196 62.0494C180.23 61.7119 179.345 61.1891 178.54 60.4807C177.735 59.7385 177.091 58.8448 176.609 57.7989C176.158 56.7531 175.933 55.5219 175.933 54.1051C175.933 52.5871 176.271 51.2548 176.946 50.1077C177.622 48.9272 178.508 48.0332 179.602 47.426C180.697 46.8188 181.936 46.4139 183.32 46.2115C184.736 45.9753 186.217 45.8573 187.762 45.8573H192.301C192.301 44.6091 191.947 43.5971 191.239 42.8213C190.563 42.0456 189.549 41.6575 188.197 41.6575C187.263 41.6237 186.394 41.7926 185.589 42.1635C184.785 42.5345 184.302 43.1249 184.141 43.9345H176.415C176.609 42.3153 177.059 40.9324 177.767 39.7853C178.476 38.6048 179.361 37.6601 180.423 36.9517C181.517 36.2095 182.709 35.6867 183.996 35.3831C185.316 35.0457 186.684 34.8771 188.1 34.8771C190.386 34.8771 192.269 35.2146 193.749 35.8891C195.23 36.5637 196.405 37.4916 197.274 38.6721C198.176 39.8192 198.787 41.1854 199.109 42.7707C199.463 44.3561 199.64 46.0092 199.64 47.7296V62.0999H192.591ZM192.349 50.8161H187.907C186.523 50.8161 185.445 51.0524 184.672 51.5245C183.932 51.9967 183.561 52.6884 183.561 53.5992C183.561 54.4761 183.851 55.151 184.431 55.6231C185.042 56.0953 185.847 56.3316 186.845 56.3316C187.553 56.3316 188.229 56.2304 188.873 56.028C189.549 55.7917 190.144 55.4375 190.659 54.9654C191.207 54.4932 191.625 53.9195 191.915 53.2449C192.204 52.5365 192.349 51.7269 192.349 50.8161ZM212.439 62.0999H204.859V26.2751H212.439V62.0999ZM256.71 26.2751V33.8145H240.052V41.7081H253.909V49.0958H240.052V62.0999H232.181V26.2751H256.71ZM264.795 22.9355C266.147 22.9355 267.258 23.3571 268.127 24.2005C269.029 25.044 269.479 26.2078 269.479 27.6919C269.479 29.2438 269.029 30.4411 268.127 31.2845C267.258 32.0941 266.147 32.4989 264.795 32.4989C263.507 32.4989 262.396 32.0941 261.463 31.2845C260.561 30.4749 260.111 29.2773 260.111 27.6919C260.111 26.2078 260.579 25.044 261.512 24.2005C262.444 23.3571 263.54 22.9355 264.795 22.9355ZM268.609 62.0999H261.029V35.4337H268.609V62.0999ZM281.892 38.3685C283.02 37.0868 284.243 36.1927 285.562 35.6867C286.883 35.1807 288.154 34.911 289.376 34.8771C290.987 34.8771 292.387 35.164 293.577 35.7373C294.801 36.2772 295.831 37.0362 296.667 38.0143C297.602 39.1949 298.245 40.5782 298.598 42.1635C298.954 43.7489 299.129 45.5032 299.129 47.426V62.0999H291.501V48.0837C291.501 47.3415 291.437 46.6163 291.307 45.9079C291.18 45.1995 290.939 44.5585 290.583 43.9851C290.23 43.4118 289.747 42.9731 289.135 42.6695C288.525 42.3321 287.767 42.1635 286.865 42.1635C285.9 42.1974 285.096 42.4165 284.451 42.8213C283.808 43.2261 283.31 43.7489 282.954 44.3899C282.601 44.9971 282.344 45.6717 282.182 46.4139C282.054 47.1562 281.989 47.8981 281.989 48.6404V62.0999H274.408V35.4337H281.506L281.892 38.3685ZM319.997 62.0999L319.949 58.6591C319.369 59.5026 318.678 60.211 317.873 60.7843C317.1 61.3242 316.231 61.7458 315.265 62.0494C314.332 62.353 313.174 62.5048 311.789 62.5048C310.663 62.5048 309.601 62.353 308.602 62.0494C307.636 61.7119 306.752 61.1891 305.946 60.4807C305.141 59.7385 304.498 58.8448 304.015 57.7989C303.565 56.7531 303.339 55.5219 303.339 54.1051C303.339 52.5871 303.677 51.2548 304.353 50.1077C305.029 48.9272 305.913 48.0332 307.009 47.426C308.104 46.8188 309.342 46.4139 310.726 46.2115C312.142 45.9753 313.624 45.8573 315.169 45.8573H319.707C319.707 44.6091 319.354 43.5971 318.645 42.8213C317.969 42.0456 316.955 41.6575 315.603 41.6575C314.67 41.6237 313.801 41.7926 312.996 42.1635C312.19 42.5345 311.708 43.1249 311.547 43.9345H303.822C304.015 42.3153 304.465 40.9324 305.174 39.7853C305.883 38.6048 306.767 37.6601 307.829 36.9517C308.925 36.2095 310.114 35.6867 311.402 35.3831C312.721 35.0457 314.091 34.8771 315.507 34.8771C317.791 34.8771 319.674 35.2146 321.156 35.8891C322.637 36.5637 323.812 37.4916 324.681 38.6721C325.583 39.8192 326.193 41.1854 326.515 42.7707C326.869 44.3561 327.047 46.0092 327.047 47.7296V62.0999H319.997ZM319.756 50.8161H315.313C313.929 50.8161 312.851 51.0524 312.078 51.5245C311.339 51.9967 310.968 52.6884 310.968 53.5992C310.968 54.4761 311.258 55.151 311.837 55.6231C312.449 56.0953 313.253 56.3316 314.251 56.3316C314.96 56.3316 315.636 56.2304 316.279 56.028C316.955 55.7917 317.55 55.4375 318.066 54.9654C318.612 54.4932 319.031 53.9195 319.321 53.2449C319.611 52.5365 319.756 51.7269 319.756 50.8161ZM339.75 38.3685C340.876 37.0868 342.098 36.1927 343.419 35.6867C344.738 35.1807 346.009 34.911 347.234 34.8771C348.842 34.8771 350.243 35.164 351.434 35.7373C352.657 36.2772 353.686 37.0362 354.525 38.0143C355.457 39.1949 356.1 40.5782 356.456 42.1635C356.809 43.7489 356.987 45.5032 356.987 47.426V62.0999H349.358V48.0837C349.358 47.3415 349.292 46.6163 349.165 45.9079C349.036 45.1995 348.794 44.5585 348.441 43.9851C348.085 43.4118 347.602 42.9731 346.992 42.6695C346.38 42.3321 345.623 42.1635 344.723 42.1635C343.757 42.1974 342.952 42.4165 342.309 42.8213C341.663 43.2261 341.165 43.7489 340.812 44.3899C340.456 44.9971 340.2 45.6717 340.039 46.4139C339.91 47.1562 339.846 47.8981 339.846 48.6404V62.0999H332.266V35.4337H339.363L339.75 38.3685ZM373.845 55.3195C375.004 55.3195 375.939 55.0327 376.645 54.4593C377.354 53.8521 377.789 53.1099 377.949 52.2329H385.771C385.611 54.0207 385.192 55.5558 384.516 56.8375C383.84 58.1193 382.955 59.1819 381.86 60.0253C380.798 60.8688 379.575 61.4928 378.19 61.8976C376.808 62.3024 375.375 62.5048 373.893 62.5048C369.774 62.5048 366.602 61.3071 364.381 58.9122C362.193 56.5172 361.098 53.127 361.098 48.7415C361.098 46.6163 361.405 44.6935 362.015 42.9731C362.628 41.2527 363.481 39.8021 364.574 38.6215C365.702 37.4071 367.054 36.4796 368.63 35.8385C370.241 35.1975 372.058 34.8771 374.086 34.8771C375.631 34.8771 377.08 35.0963 378.432 35.5349C379.784 35.9736 380.96 36.6314 381.957 37.5083C382.988 38.3518 383.809 39.4311 384.419 40.7467C385.064 42.0285 385.466 43.5297 385.626 45.2501H377.949C377.756 44.3393 377.306 43.6142 376.597 43.0743C375.89 42.501 374.973 42.2141 373.845 42.2141C372.879 42.2141 372.058 42.4165 371.382 42.8213C370.706 43.1923 370.175 43.6983 369.789 44.3393C369.403 44.9465 369.131 45.6549 368.968 46.4645C368.808 47.2403 368.727 48.0331 368.727 48.8427C368.727 49.7535 368.808 50.597 368.968 51.3727C369.161 52.115 369.469 52.7895 369.886 53.3967C370.305 53.9701 370.836 54.4426 371.479 54.8136C372.124 55.151 372.912 55.3195 373.845 55.3195ZM401.668 55.8762C402.666 55.8762 403.502 55.7076 404.178 55.3701C404.854 54.9992 405.353 54.4932 405.675 53.8521H413.401C413.047 55.404 412.499 56.7196 411.759 57.7989C411.019 58.8783 410.117 59.7723 409.055 60.4807C407.993 61.1891 406.819 61.7119 405.53 62.0494C404.275 62.353 402.956 62.5048 401.571 62.5048C397.548 62.5048 394.41 61.3071 392.156 58.9122C389.935 56.4834 388.824 53.0593 388.824 48.6404C388.824 46.6837 389.114 44.8621 389.693 43.1755C390.305 41.489 391.142 40.0383 392.204 38.8239C393.299 37.5757 394.618 36.6143 396.163 35.9397C397.741 35.2313 399.51 34.8771 401.474 34.8771C403.439 34.8771 405.177 35.1975 406.689 35.8385C408.201 36.4796 409.474 37.3904 410.504 38.5709C411.533 39.7515 412.305 41.1515 412.821 42.7707C413.368 44.3899 413.642 46.1442 413.642 48.0332C413.642 48.573 413.609 49.0957 413.546 49.6017C413.513 50.0739 413.449 50.597 413.352 51.1703H396.453C396.582 52.4521 397.048 53.5485 397.853 54.4593C398.689 55.3701 399.962 55.8423 401.668 55.8762ZM406.351 45.8067C406.351 44.5585 405.917 43.5297 405.047 42.7201C404.211 41.9105 403.052 41.5057 401.571 41.5057C399.929 41.5057 398.707 41.9444 397.901 42.8213C397.096 43.6648 396.646 44.6597 396.549 45.8067H406.351Z" fill="white"/>
<defs>
<linearGradient id="paint0_linear_1830_2100" x1="66.6631" y1="36.192" x2="67.2951" y2="35.8437" gradientUnits="userSpaceOnUse">
<stop stop-color="#FF4E17"/>
<stop offset="0.7525" stop-color="#F4BA4D"/>
</linearGradient>
<linearGradient id="paint1_linear_1830_2100" x1="67.7155" y1="35.8572" x2="71.3404" y2="33.8602" gradientUnits="userSpaceOnUse">
<stop stop-color="#FF4E17"/>
<stop offset="0.7525" stop-color="#F4BA4D"/>
</linearGradient>
<linearGradient id="paint2_linear_1830_2100" x1="71.2592" y1="33.7122" x2="71.3253" y2="33.6756" gradientUnits="userSpaceOnUse">
<stop stop-color="#FF4E17"/>
<stop offset="0.7525" stop-color="#F4BA4D"/>
</linearGradient>
<linearGradient id="paint3_linear_1830_2100" x1="-1.50564" y1="55.3769" x2="74.4555" y2="13.528" gradientUnits="userSpaceOnUse">
<stop stop-color="#33B38F"/>
<stop offset="0.7673" stop-color="#9EF8CB"/>
</linearGradient>
<linearGradient id="paint4_linear_1830_2100" x1="65.5454" y1="36.4882" x2="66.0895" y2="36.1883" gradientUnits="userSpaceOnUse">
<stop stop-color="#FF4E17"/>
<stop offset="0.7525" stop-color="#F4BA4D"/>
</linearGradient>
<linearGradient id="paint5_linear_1830_2100" x1="64.9108" y1="36.6174" x2="65.4517" y2="36.3194" gradientUnits="userSpaceOnUse">
<stop stop-color="#FF4E17"/>
<stop offset="0.7525" stop-color="#F4BA4D"/>
</linearGradient>
<linearGradient id="paint6_linear_1830_2100" x1="7.81392" y1="42.3034" x2="71.327" y2="42.3034" gradientUnits="userSpaceOnUse">
<stop stop-color="#33B38F"/>
<stop offset="1" stop-color="#9EF8CB"/>
</linearGradient>
<linearGradient id="paint7_linear_1830_2100" x1="81.5498" y1="69.267" x2="26.0169" y2="38.6727" gradientUnits="userSpaceOnUse">
<stop stop-color="#FF4E17"/>
<stop offset="0.7673" stop-color="#F4BA4D"/>
</linearGradient>
<linearGradient id="paint8_linear_1830_2100" x1="73.3609" y1="60.5427" x2="28.7788" y2="35.9814" gradientUnits="userSpaceOnUse">
<stop stop-color="#FF4E17"/>
<stop offset="1" stop-color="#F4BA4D"/>
</linearGradient>
</defs>
</svg>
