<svg version="1.1" viewBox="0.0 0.0 960.0 540.0" fill="none" stroke="none" stroke-linecap="square" stroke-miterlimit="10" xmlns:xlink="http://www.w3.org/1999/xlink" xmlns="http://www.w3.org/2000/svg"><clipPath id="g2f3537d305c_0_42.0"><path d="m0 0l960.0 0l0 540.0l-960.0 0l0 -540.0z" clip-rule="nonzero"/></clipPath><g clip-path="url(#g2f3537d305c_0_42.0)"><path fill="#000000" fill-opacity="0.0" d="m0 0l960.0 0l0 540.0l-960.0 0z" fill-rule="evenodd"/><defs><linearGradient id="g2f3537d305c_0_42.1" gradientUnits="userSpaceOnUse" gradientTransform="matrix(-2.332990693801914 -18.020894763863453 18.020894763863453 -2.332990693801914 0.0 0.0)" spreadMethod="pad" x1="-38.291321825891295" y1="22.805401218506706" x2="-25.54864750418685" y2="35.54812067791627"><stop offset="0.0" stop-color="#02353a"/><stop offset="0.5" stop-color="#528b87"/><stop offset="1.0" stop-color="#9fd2c7"/></linearGradient></defs><path fill="url(#g2f3537d305c_0_42.1)" d="m597.9451 358.4571c41.580627 37.231934 43.26172 76.704834 4.1868286 98.3089c-39.07489 21.604065 -110.308685 20.585999 -177.41061 -2.5355225c-67.10193 -23.121521 -115.30853 -63.25937 -120.060425 -99.964966z" fill-rule="evenodd"/><defs><radialGradient id="g2f3537d305c_0_42.2" gradientUnits="userSpaceOnUse" gradientTransform="matrix(-2.2802370760630892 -14.028547436210008 14.028547436210008 -2.2802370760630892 0.0 0.0)" spreadMethod="pad" cx="-32.51260312870202" cy="30.443265804981152" fx="-32.51260312870202" fy="30.443265804981152" r="14.028547286987305"><stop offset="0.0" stop-color="#9fd2c7"/><stop offset="1.0" stop-color="#76afa0"/></radialGradient></defs><path fill="url(#g2f3537d305c_0_42.2)" d="m603.6697 354.84546l0 0c77.60864 22.05722 111.099304 48.433197 80.64191 63.51056c-30.457458 15.077332 -116.73285 14.831421 -207.74191 -0.5921631c-91.00903 -15.423553 -162.45853 -41.907745 -172.0426 -63.771057z" fill-rule="evenodd"/><defs><radialGradient id="g2f3537d305c_0_42.3" gradientUnits="userSpaceOnUse" gradientTransform="matrix(19.873349194388442 0.0 0.0 19.873349194388442 0.0 0.0)" spreadMethod="pad" cx="13.113483117555601" cy="2.7700601833456124" fx="13.113483117555601" fy="2.7700601833456124" r="19.873350143432617"><stop offset="0.0" stop-color="#bca378"/><stop offset="1.0" stop-color="#fbeece"/></radialGradient></defs><path fill="url(#g2f3537d305c_0_42.3)" d="m260.60883 222.514c11.849487 -84.08046 44.21115 -146.97832 84.03461 -163.329c39.823425 -16.350674 80.542786 16.541653 105.737305 85.41261c25.194519 68.87096 30.710236 162.36548 14.3229065 242.78033l-34.53778 -33.120575c8.083588 -68.63229 2.27594 -144.3889 -15.111816 -197.12254c-17.387756 -52.733643 -43.5343 -73.88791 -68.03464 -55.044487c-24.500366 18.843422 -43.37918 74.62705 -49.123627 145.15186z" fill-rule="evenodd"/><defs><radialGradient id="g2f3537d305c_0_42.4" gradientUnits="userSpaceOnUse" gradientTransform="matrix(14.0911551878318 0.0 0.0 14.0911551878318 0.0 0.0)" spreadMethod="pad" cx="27.114783469404447" cy="16.845686930502545" fx="27.114783469404447" fy="16.845686930502545" r="14.091155052185059"><stop offset="0.0" stop-color="#bca378"/><stop offset="0.5" stop-color="#fbeece"/><stop offset="1.0" stop-color="#fbeece"/></radialGradient></defs><path fill="url(#g2f3537d305c_0_42.4)" d="m273.11774 291.8909l0 0c2.9682617 -94.16507 31.446838 -175.49936 72.46686 -206.96405c41.02002 -31.464687 86.73654 -7.0422363 116.33066 62.145607c29.594116 69.187836 37.406097 169.90912 19.878387 256.2963l-34.482758 -32.9252l0 0c8.533325 -72.61905 1.4871216 -152.75418 -18.0531 -205.31526c-19.540253 -52.561066 -48.013428 -67.96908 -72.95154 -39.47706c-24.93811 28.492027 -41.796234 95.69155 -43.192505 172.17276z" fill-rule="evenodd"/><defs><radialGradient id="g2f3537d305c_0_42.5" gradientUnits="userSpaceOnUse" gradientTransform="matrix(-19.873397688758153 0.0 0.0 19.873397688758153 0.0 0.0)" spreadMethod="pad" cx="-35.37997601180168" cy="2.770053403271484" fx="-35.37997601180168" fy="2.770053403271484" r="19.873397827148438"><stop offset="0.0" stop-color="#bca378"/><stop offset="1.0" stop-color="#fbeece"/></radialGradient></defs><path fill="url(#g2f3537d305c_0_42.5)" d="m703.12036 222.51796c-11.849182 -84.08182 -44.21039 -146.98105 -84.03345 -163.33257c-39.82306 -16.351517 -80.542175 16.54063 -105.736694 85.412155c-25.19458 68.87154 -30.710602 162.36726 -14.3237 242.78358l34.53769 -33.120483c-8.083313 -68.63379 -2.2755127 -144.39171 15.112244 -197.12598c17.387756 -52.73427 43.53412 -73.888405 68.03424 -55.044144c24.500061 18.844254 43.3786 74.62929 49.122864 145.15553z" fill-rule="evenodd"/><defs><radialGradient id="g2f3537d305c_0_42.6" gradientUnits="userSpaceOnUse" gradientTransform="matrix(-14.09113336002746 0.0 0.0 14.09113336002746 0.0 0.0)" spreadMethod="pad" cx="-41.27767162429991" cy="16.845712963963397" fx="-41.27767162429991" fy="16.845712963963397" r="14.091133117675781"><stop offset="0.0" stop-color="#bca378"/><stop offset="0.5" stop-color="#fbeece"/><stop offset="1.0" stop-color="#fbeece"/></radialGradient></defs><path fill="url(#g2f3537d305c_0_42.6)" d="m690.60895 291.81955l0 0c-2.9811401 -94.154465 -31.466187 -175.46472 -72.48535 -206.9086c-41.019165 -31.443878 -86.72919 -7.008995 -116.31738 62.178963c-29.588226 69.18796 -37.397034 169.89955 -19.870941 256.2788l34.482758 -32.9252l0 0c-8.532684 -72.61386 -1.4881592 -152.7433 18.049255 -205.3049c19.537476 -52.5616 48.00769 -67.977715 72.94556 -39.498642c24.937866 28.479065 41.799194 95.66394 43.201477 172.13878z" fill-rule="evenodd"/></g></svg>