<svg width="261" height="80" viewBox="0 0 261 80" fill="none" xmlns="http://www.w3.org/2000/svg">
<path fill-rule="evenodd" clip-rule="evenodd" d="M38.3956 21.6544C38.396 21.6539 38.3963 21.6533 38.3967 21.6529C41.3441 23.1336 44.5693 23.6409 47.6556 23.6322C49.4489 25.2449 50.9409 27.1391 52.3427 29.0843C52.924 29.8968 53.4483 30.7469 53.9119 31.629C54.9839 33.6502 55.7722 35.7887 56.57 37.9524C56.8039 38.587 57.0387 39.2238 57.2816 39.8604C57.3577 40.1329 57.4372 40.4055 57.5201 40.6782L57.5245 40.6771C58.7565 44.8147 60.5555 49.2346 62.9661 52.8839L62.9637 52.8848C63.761 54.0836 64.6542 55.2187 65.6349 56.2795C65.8279 56.4839 66.0252 56.6863 66.2228 56.889L66.2229 56.8891L66.223 56.8892L66.2233 56.8894C67.1465 57.8366 68.0763 58.7904 68.6034 59.9837C69.2597 61.4708 69.2093 63.1813 68.8146 64.755C66.9523 72.1729 59.6564 74.122 52.6838 74.3018L52.6872 74.2933C50.0728 74.3442 47.4766 74.1535 45.1744 73.9224C45.1744 73.9224 34.071 72.7972 24.6595 66.06L24.3557 65.8389L24.3558 65.8389C23.2572 65.0374 22.2092 64.1714 21.2174 63.2457C18.5795 60.7805 16.2323 57.9845 14.4373 54.9149C14.4494 54.9031 14.4613 54.8913 14.4733 54.8795C14.2609 54.5052 14.0572 54.1271 13.8623 53.7451C12.1259 50.3423 11.0676 46.6381 11.0197 42.701C10.938 36.0945 13.2463 29.3288 17.6339 24.4237C17.6323 24.4196 17.6308 24.4156 17.6292 24.4115C20.0049 21.8636 22.9742 19.862 26.4893 18.7224C28.693 18.0015 31.0065 17.6553 33.3295 17.699C34.7431 19.3242 36.4633 20.6671 38.3956 21.6544ZM32.987 64.8799C34.5755 64.3122 36.0804 63.5487 37.4837 62.6078C36.0715 63.5422 34.5645 64.3063 32.987 64.8799Z" fill="url(#paint0_linear_6247_5810)"/>
<path fill-rule="evenodd" clip-rule="evenodd" d="M61.4415 16.2735C61.4426 16.2735 61.4437 16.2735 61.4449 16.2734L61.5407 16.213C49.1614 -4.46293 32.9746 11.8154 32.9746 11.8154L32.9978 11.8552C32.9968 11.8555 32.9959 11.8557 32.9949 11.856C42.303 27.8347 59.993 17.1848 61.4415 16.2735Z" fill="url(#paint1_linear_6247_5810)"/>
<path d="M46.0959 51.8837C42.6848 59.8678 36.1353 65.1545 28.2003 65.9553C28.0297 65.9776 25.858 66.1454 24.6592 66.0587C34.0708 72.7959 45.1741 73.9211 45.1741 73.9211C47.5514 74.1597 50.2421 74.3553 52.9426 74.2861C53.8937 71.8551 54.4289 69.0718 54.2754 65.914C53.9189 58.5796 58.2624 54.8142 62.9658 52.8825C60.5552 49.2332 58.7562 44.8134 57.5242 40.6758C53.8515 41.6324 49.1871 44.6408 46.0959 51.8837Z" fill="url(#paint2_linear_6247_5810)"/>
<path d="M54.1268 65.8614C54.2812 69.0193 53.6347 71.8686 52.6836 74.2996C59.6562 74.1199 66.952 72.1708 68.8144 64.7529C69.2091 63.1791 69.2594 61.4686 68.6032 59.9815C67.9632 58.5326 66.7295 57.4368 65.6347 56.2773C64.6104 55.1695 63.6817 53.9805 62.8578 52.7227C58.1585 54.6551 53.7703 58.5278 54.1268 65.8614Z" fill="url(#paint3_linear_6247_5810)"/>
<path d="M57.2814 39.8599C56.2101 37.0527 55.298 34.2424 53.9116 31.6285C53.448 30.7464 52.9238 29.8962 52.3425 29.0838C50.9406 27.1386 49.4487 25.2444 47.6554 23.6317C44.5691 23.6404 41.3439 23.1331 38.3965 21.6523C35.4109 25.7987 31.9949 32.8325 35.1218 40.8611C39.739 52.718 30.3689 60.8213 24.3555 65.8384L24.6592 66.0595C25.7867 66.1456 26.9199 66.1297 28.0444 66.0118C35.9786 65.2102 42.9073 59.7963 46.3185 51.813C49.4105 44.57 53.9084 41.8185 57.5762 40.8611C57.4728 40.5271 57.3745 40.1933 57.2814 39.8599Z" fill="url(#paint4_linear_6247_5810)"/>
<path d="M17.9565 24.0703C13.3596 29.0007 10.936 35.9343 11.0197 42.7009C11.0676 46.6381 12.1259 50.3423 13.8623 53.7451C14.1228 54.2556 14.3989 54.7592 14.6907 55.256C24.3549 45.7578 20.8633 31.6051 17.9565 24.0703Z" fill="url(#paint5_linear_6247_5810)"/>
<path d="M35.2846 40.8616C32.1577 32.8298 35.4974 25.8421 38.4789 21.6966C36.5127 20.7055 34.7635 19.3475 33.3297 17.699C31.0067 17.6553 28.6932 18.0015 26.4895 18.7224C22.9744 19.862 20.005 21.8636 17.6294 24.4115C20.472 31.7809 23.8881 45.625 14.4375 54.9149C16.2324 57.9845 18.5796 60.7805 21.2176 63.2457C22.2581 64.2169 23.3605 65.1224 24.5183 65.9566C30.5317 60.9419 39.9019 52.7185 35.2846 40.8616Z" fill="url(#paint6_linear_6247_5810)"/>
<path d="M46.9445 13.1312C53.4883 15.6592 58.0714 16.3439 61.3941 16.2461L61.4899 16.1857C49.1106 -4.49028 32.9238 11.7881 32.9238 11.7881L32.9474 11.8286C36.439 11.2226 41.5135 11.0342 46.9445 13.1312Z" fill="url(#paint7_linear_6247_5810)"/>
<path d="M47.025 12.9893C41.5972 10.8955 36.4934 10.975 32.9434 11.8299C42.2518 27.8092 59.9427 17.1579 61.3901 16.2474C58.065 16.3452 53.5687 15.5174 47.025 12.9893Z" fill="url(#paint8_linear_6247_5810)"/>
<path d="M94.6621 57V22.0879H101.376L113.217 48.5771L124.813 22.0879H131.283V57H125.302V32.6836L115.829 57H110.312L100.644 32.6836V57H94.6621ZM136.776 49.0166C136.776 43.9222 140.487 41.375 147.909 41.375C149.651 41.375 151.392 41.5378 153.134 41.8633V39.9346C153.134 37.6396 151.482 36.4922 148.178 36.4922C145.378 36.4922 142.27 36.8991 138.852 37.7129V32.5859C142.27 31.7721 145.378 31.3652 148.178 31.3652C155.795 31.3652 159.604 34.181 159.604 39.8125V57H155.844L153.549 54.7051C151.319 56.235 148.861 57 146.176 57C139.91 57 136.776 54.3389 136.776 49.0166ZM153.134 46.2578C151.506 45.9323 149.765 45.7695 147.909 45.7695C144.8 45.7695 143.246 46.8275 143.246 48.9434C143.246 51.222 144.548 52.3613 147.152 52.3613C149.301 52.3613 151.295 51.694 153.134 50.3594V46.2578ZM165.731 57V31.3652H170.736L171.542 35.125C174 32.6185 176.799 31.3652 179.94 31.3652C186.011 31.3652 189.047 34.5228 189.047 40.8379V57H182.577V40.8379C182.577 38.0059 181.169 36.5898 178.354 36.5898C176.254 36.5898 174.203 37.4281 172.201 39.1045V57H165.731ZM211.581 37.1758C210.523 36.7852 209.018 36.5898 207.064 36.5898C202.589 36.5898 200.351 39.0557 200.351 43.9873C200.351 48.7562 202.279 51.1406 206.137 51.1406C207.992 51.1406 209.807 50.7012 211.581 49.8223V37.1758ZM218.051 55.0469C218.051 62.5339 213.55 66.2773 204.55 66.2773C201.392 66.2773 198.593 65.8704 196.151 65.0566V59.9297C198.642 60.7435 201.457 61.1504 204.599 61.1504C209.254 61.1504 211.581 59.1973 211.581 55.291C209.66 56.1048 207.593 56.5117 205.38 56.5117C197.763 56.5117 193.954 52.3532 193.954 44.0361C193.954 35.5889 198.389 31.3652 207.26 31.3652C210.238 31.3652 213.835 31.7152 218.051 32.415V55.0469ZM229.428 44.085C229.428 49.4398 231.503 52.1172 235.653 52.1172C239.804 52.1172 241.879 49.4398 241.879 44.085C241.879 38.8604 239.804 36.248 235.653 36.248C231.503 36.248 229.428 38.8604 229.428 44.085ZM222.958 44.1826C222.958 35.5889 227.19 31.292 235.653 31.292C244.117 31.292 248.349 35.5889 248.349 44.1826C248.349 52.7601 244.117 57.0488 235.653 57.0488C227.222 57.0488 222.991 52.7601 222.958 44.1826Z" fill="white"/>
<defs>
<linearGradient id="paint0_linear_6247_5810" x1="3.77663" y1="27.3968" x2="78.6199" y2="73.2027" gradientUnits="userSpaceOnUse">
<stop stop-color="#E54033"/>
<stop offset="0.489583" stop-color="#FECA1A"/>
<stop offset="1" stop-color="#AFD803"/>
</linearGradient>
<linearGradient id="paint1_linear_6247_5810" x1="21422.7" y1="2483.14" x2="16786.7" y2="-2387.36" gradientUnits="userSpaceOnUse">
<stop offset="0.15" stop-color="#6CBF00"/>
<stop offset="1" stop-color="#AFD803"/>
</linearGradient>
<linearGradient id="paint2_linear_6247_5810" x1="16.8468" y1="66.6185" x2="64.1644" y2="54.8679" gradientUnits="userSpaceOnUse">
<stop offset="0.21" stop-color="#E54033"/>
<stop offset="0.84" stop-color="#FECA1A"/>
</linearGradient>
<linearGradient id="paint3_linear_6247_5810" x1="54.2162" y1="63.4853" x2="68.8517" y2="63.5973" gradientUnits="userSpaceOnUse">
<stop stop-color="#FECA1A"/>
<stop offset="0.4" stop-color="#FECA1A"/>
<stop offset="1" stop-color="#AFD803"/>
</linearGradient>
<linearGradient id="paint4_linear_6247_5810" x1="21.0881" y1="66.9088" x2="50.2802" y2="26.5452" gradientUnits="userSpaceOnUse">
<stop offset="0.16" stop-color="#E54033"/>
<stop offset="0.84" stop-color="#FECA1A"/>
</linearGradient>
<linearGradient id="paint5_linear_6247_5810" x1="16.7188" y1="27.388" x2="15.4448" y2="53.0814" gradientUnits="userSpaceOnUse">
<stop stop-color="#FECA1A"/>
<stop offset="0.76" stop-color="#E54033"/>
</linearGradient>
<linearGradient id="paint6_linear_6247_5810" x1="31.3975" y1="20.7169" x2="23.6941" y2="50.5918" gradientUnits="userSpaceOnUse">
<stop offset="0.16" stop-color="#FECA1A"/>
<stop offset="1" stop-color="#E54033"/>
</linearGradient>
<linearGradient id="paint7_linear_6247_5810" x1="34.5019" y1="6.45047" x2="64.0212" y2="17.5632" gradientUnits="userSpaceOnUse">
<stop offset="0.15" stop-color="#6CBF00"/>
<stop offset="1" stop-color="#AFD803"/>
</linearGradient>
<linearGradient id="paint8_linear_6247_5810" x1="21422.6" y1="2483.12" x2="16786.6" y2="-2387.38" gradientUnits="userSpaceOnUse">
<stop offset="0.15" stop-color="#6CBF00"/>
<stop offset="1" stop-color="#AFD803"/>
</linearGradient>
</defs>
</svg>
