<?xml version="1.0" encoding="iso-8859-1"?>
<!-- Uploaded to: SVG Repo, www.svgrepo.com, Generator: SVG Repo Mixer Tools -->
<!DOCTYPE svg PUBLIC "-//W3C//DTD SVG 1.1//EN" "http://www.w3.org/Graphics/SVG/1.1/DTD/svg11.dtd">
<svg height="800px" width="800px" version="1.1" id="Capa_1" xmlns="http://www.w3.org/2000/svg" xmlns:xlink="http://www.w3.org/1999/xlink" 
	 viewBox="0 0 484.656 484.656" xml:space="preserve">
  <defs>
    <radialGradient id="grad1" cx="50%" cy="50%" r="50%" fx="50%" fy="50%">
      <stop offset="0%" style="stop-color:#95C9BD;stop-opacity:1" />
      <stop offset="100%" style="stop-color:#2b7765;stop-opacity:1" />
    </radialGradient>
  </defs>
  <g fill="none">
    <path fill="url(#grad1)" d="M451.074,438.034h-9.837V195.806h-0.008c-12.084,0-23.525-3.944-33.045-10.585c-6.411,4.508-13.791,7.84-21.954,9.467
		c-3.746,0.746-7.553,1.118-11.322,1.118c-2.499,0-4.943-0.278-7.371-0.595v180.184c0,10.282-8.339,18.62-18.629,18.62h-66.923
		v-51.032l23.595,39.378c2.785,4.657,7.72,7.236,12.782,7.236c2.595,0,5.237-0.683,7.634-2.119
		c7.045-4.228,9.338-13.362,5.108-20.414l-47.429-79.167c-2.936-4.912-8.268-7.339-13.607-7.037
		c-0.357-0.033-54.953-0.041-55.286-0.017c-5.411-0.372-10.822,2.079-13.805,7.054l-47.43,79.167
		c-4.229,7.052-1.937,16.186,5.109,20.414c2.397,1.436,5.039,2.119,7.634,2.119c5.062,0,9.997-2.579,12.782-7.236l23.746-39.631
		v51.285h-67.066c-10.291,0-18.629-8.337-18.629-18.62V195.211c-2.427,0.317-4.872,0.595-7.371,0.595
		c-3.745,0-7.554-0.372-11.361-1.126c-8.157-1.626-15.52-4.951-21.923-9.459c-9.52,6.641-20.953,10.585-33.038,10.585h-0.008
		v242.228h-9.837c-12.877,0-23.311,10.433-23.311,23.311c0,12.877,10.434,23.311,23.311,23.311h417.492
		c12.878,0,23.311-10.434,23.311-23.311C474.385,448.467,463.952,438.034,451.074,438.034z"/>
    <path fill="url(#grad1)" d="M242.321,197.226c-17.115,0-31.007,15.877-31.007,35.474c0,19.581,13.892,35.473,31.007,35.473
		c17.13,0,31.015-15.892,31.015-35.473C273.335,213.103,259.451,197.226,242.321,197.226z"/>
    <path fill="url(#grad1)" d="M33.938,169.553c3.167,0.936,6.356,1.387,9.506,1.387c14.265,0,27.453-9.29,31.744-23.666l1.745-5.832
		c1.563,13.973,11.798,25.968,26.318,28.857c2.181,0.436,4.363,0.642,6.506,0.642c15.495,0,29.34-10.916,32.482-26.682l0.809-4.054
		c1.143,15.78,13.409,28.952,29.689,30.57c1.12,0.11,2.23,0.158,3.333,0.158c16.821,0,31.237-12.757,32.943-29.863l0.246-2.46
		c0.452,17.923,15.044,32.323,33.07,32.323c18.025,0,32.617-14.4,33.069-32.323l0.245,2.46
		c1.707,17.106,16.123,29.863,32.944,29.863c1.103,0,2.213-0.047,3.332-0.158c16.28-1.618,28.555-14.79,29.689-30.57l0.809,4.054
		c3.143,15.773,16.987,26.682,32.481,26.682c2.144,0,4.326-0.206,6.507-0.642c14.52-2.889,24.764-14.884,26.318-28.857l1.745,5.832
		c4.292,14.377,17.479,23.666,31.744,23.666c3.149,0,6.339-0.452,9.506-1.387c17.549-5.246,27.515-23.716,22.279-41.25
		L443.076,28.158C438.086,11.449,422.718,0,405.279,0H79.377C61.938,0,46.57,11.449,41.58,28.158L11.659,128.303
		C6.423,145.837,16.389,164.307,33.938,169.553z"/>
  </g>
</svg>
