<?xml version="1.0" encoding="utf-8"?>
<!-- Uploaded to: SVG Repo, www.svgrepo.com, Generator: SVG Repo Mixer Tools -->
<svg width="800px" height="800px" viewBox="0 0 24 24" fill="none" xmlns="http://www.w3.org/2000/svg">
  <defs>
    <radialGradient id="grad1" cx="50%" cy="50%" r="50%" fx="50%" fy="50%">
      <stop offset="4.9%" style="stop-color:#bca378;stop-opacity:1" />
      <stop offset="100%" style="stop-color:#dfab52;stop-opacity:1" />
    </radialGradient>
  </defs>
  <path fill-rule="evenodd" clip-rule="evenodd" d="M7.08398 5.22265C7.17671 5.08355 7.33282 5 7.5 5H18.5C18.6844 5 18.8538 5.10149 18.9408 5.26407C19.0278 5.42665 19.0183 5.62392 18.916 5.77735L16.916 8.77735C16.8233 8.91645 16.6672 9 16.5 9H5.5C5.3156 9 5.14617 8.89851 5.05916 8.73593C4.97215 8.57335 4.98169 8.37608 5.08398 8.22265L7.08398 5.22265ZM7.76759 6L6.43426 8H16.2324L17.5657 6H7.76759Z" fill="url(#grad1)"/>
  <path fill-rule="evenodd" clip-rule="evenodd" d="M7.08398 15.2226C7.17671 15.0836 7.33282 15 7.5 15H18.5C18.6844 15 18.8538 15.1015 18.9408 15.2641C19.0278 15.4267 19.0183 15.6239 18.916 15.7774L16.916 18.7774C16.8233 18.9164 16.6672 19 16.5 19H5.5C5.3156 19 5.14617 18.8985 5.05916 18.7359C4.97215 18.5734 4.98169 18.3761 5.08398 18.2226L7.08398 15.2226ZM7.76759 16L6.43426 18H16.2324L17.5657 16H7.76759Z" fill="url(#grad1)"/>
  <path fill-rule="evenodd" clip-rule="evenodd" d="M7.08398 13.7774C7.17671 13.9164 7.33282 14 7.5 14H18.5C18.6844 14 18.8538 13.8985 18.9408 13.7359C19.0278 13.5733 19.0183 13.3761 18.916 13.2226L16.916 10.2226C16.8233 10.0836 16.6672 10 16.5 10H5.5C5.3156 10 5.14617 10.1015 5.05916 10.2641C4.97215 10.4267 4.98169 10.6239 5.08398 10.7774L7.08398 13.7774ZM7.76759 13L6.43426 11H16.2324L17.5657 13H7.76759Z" fill="url(#grad1)"/>
</svg>
